<?xml version="1.0" encoding="UTF-8"?>
<svg width="512" height="512" version="1.1" viewBox="0 0 512 512" xmlns="http://www.w3.org/2000/svg">
  <rect width="512" height="512" fill="#ffffff"/>
  <g transform="matrix(5.12 0 0 5.12 256 256)">
    <g fill="#c0c0c0">
      <path d="m-35,-10 h10 l5,20 h-10 z" />
      <path d="m-20,-10 v20 h5 v-20 z" />
      <path d="m-10,-10 h5 v20 h-5 z" />
      <path d="m0,-10 v20 h10 c5,0 7.5,-4 7.5,-10 c0,-6 -2.5,-10 -7.5,-10 z m5,5 h2.5 c1.5,0 2.5,2 2.5,5 c0,3 -1,5 -2.5,5 h-2.5 z" />
      <path d="m20,-10 v20 h10 l5,-20 h-5 l-5,15 v-15 z" />
    </g>
    <g fill="#ff0000">
      <path d="m35,-10 h5 v20 h-5 z" />
      <path d="m45,-10 h5 v20 h-5 z" />
    </g>
  </g>
</svg>